<?xml version="1.0" encoding="utf-8"?>
<!-- Generator: Adobe Illustrator 15.1.0, SVG Export Plug-In . SVG Version: 6.00 Build 0)  -->
<!DOCTYPE svg PUBLIC "-//W3C//DTD SVG 1.1//EN" "http://www.w3.org/Graphics/SVG/1.1/DTD/svg11.dtd">
<svg version="1.1" id="Layer_1" xmlns="http://www.w3.org/2000/svg" xmlns:xlink="http://www.w3.org/1999/xlink" x="0px" y="0px"
	 width="493.576px" height="126.473px" viewBox="0 0 493.576 126.473" enable-background="new 0 0 493.576 126.473"
	 xml:space="preserve">
<g display="none">
	<path display="inline" d="M13.825,11.54H35.48l-5.497,47.973h25.486l5.828-47.973h21.988L69.461,124.811H47.307L52.97,77.67H27.484
		l-5.663,47.141H0L13.825,11.54z"/>
	<path display="inline" d="M87.118,68.339c5.83-48.642,10.827-58.467,40.979-58.467c26.649,0,32.646,9.825,26.816,58.467
		c-5.997,48.307-10.994,58.134-41.31,58.134C87.284,126.473,81.122,116.646,87.118,68.339z M133.091,68.339
		c4.164-35.646,3.998-40.313-7.827-40.313c-11.327,0-12.326,4.665-16.324,40.313c-4.165,35.479-4.165,39.979,7.163,39.979
		C127.761,108.317,128.927,103.819,133.091,68.339z"/>
	<path display="inline" d="M183.567,29.363h-20.156l2.499-17.821h62.132l-2.332,17.821h-20.487l-11.327,95.446H172.24
		L183.567,29.363z"/>
	<path display="inline" d="M235.704,11.541c0,0,14.324-1.666,30.148-1.666c30.979,0,34.479,13.492,28.981,58.467
		c-5.663,46.807-10.661,58.134-43.308,58.134c-14.825,0-29.483-1.666-29.483-1.666L235.704,11.541z M256.191,108.32
		c11.494,0,12.493-5.497,16.657-39.979c4.164-34.814,4.164-40.313-7.496-40.313c-4.164,0-9.827,0.5-9.827,0.5l-9.161,79.123
		C248.695,107.986,251.861,108.32,256.191,108.32z"/>
	<path display="inline" d="M304.628,68.342c5.834-48.64,10.836-58.467,41.008-58.467c26.67,0,32.672,9.827,26.838,58.467
		c-6.002,48.307-11.002,58.134-41.34,58.134C304.792,126.476,298.628,116.648,304.628,68.342z M350.635,68.342
		c4.168-35.646,4-40.313-7.834-40.313c-11.336,0-12.336,4.664-16.338,40.313c-4.168,35.479-4.168,39.978,7.168,39.978
		C345.302,108.319,346.468,103.822,350.635,68.342z"/>
	<path display="inline" d="M401.075,29.363h-20.164l2.499-17.821h62.159l-2.332,17.821h-20.498l-11.332,95.447h-21.664
		L401.075,29.363z"/>
</g>
<g>
	<polygon fill="#DC3333" points="22.48,119.322 27.485,77.672 52.971,77.672 48.77,112.641 71.658,106.825 83.287,11.541 
		61.3,11.541 55.469,59.515 29.984,59.515 35.48,11.541 13.826,11.541 0,124.811 0.875,124.811 	"/>
	<g>
		<path fill="#DC3333" d="M106.406,97.996c-0.159-5.967,0.845-15.262,2.534-29.652c3.997-35.648,4.997-40.313,16.324-40.313
			c11.824,0,11.992,4.663,7.827,40.313c-1.208,10.286-2.161,17.959-3.194,23.683l22.502-5.719
			c0.865-5.306,1.681-11.249,2.514-17.964c5.831-48.638-0.166-58.469-26.816-58.469c-30.15,0-35.147,9.831-40.979,58.469
			c-1.883,15.169-2.566,26.542-1.803,35.012L106.406,97.996z"/>
		<path fill="#DC3333" d="M91.51,120.243c4.606,4.718,11.804,6.23,22.095,6.23c19.803,0,28.801-4.197,34.333-20.571L91.51,120.243z"
			/>
	</g>
	<g>
		<polygon fill="#DC3333" points="177.567,79.909 199.894,74.239 205.22,29.365 225.708,29.365 228.042,11.541 165.908,11.541 
			163.41,29.365 183.565,29.365 		"/>
		<polygon fill="#DC3333" points="175.307,98.948 172.238,124.811 193.894,124.811 197.636,93.273 		"/>
	</g>
	<g>
		<path fill="#FFFFFF" d="M251.758,61.057l3.769-32.522c0,0,5.662-0.5,9.828-0.5c10.018,0,11.426,4.075,8.982,27.286l22.336-5.676
			c1.916-30.129-4.637-39.77-30.82-39.77c-15.822,0-30.148,1.666-30.148,1.666l-6.667,55.291L251.758,61.057z"/>
		<path fill="#FFFFFF" d="M272.116,74.347c-3.593,29.127-5.135,33.973-15.924,33.973c-4.332,0-7.496-0.332-9.828-0.664l3.194-27.572
			l-22.82,5.799l-4.694,38.931c0,0,14.659,1.665,29.485,1.665c32.591,0,37.627-11.292,43.278-57.896L272.116,74.347z"/>
	</g>
	<g>
		<path fill="#FFFFFF" d="M330.167,41.134c2.294-11.126,5.295-13.104,12.644-13.104c6.102,0,9.095,1.257,9.996,7.351l21.005-5.339
			c-2.351-16.041-10.938-20.167-28.166-20.167c-25.039,0-32.729,6.806-37.959,36.972L330.167,41.134z"/>
		<path fill="#FFFFFF" d="M352.226,53.989c-0.406,4.117-0.944,8.867-1.585,14.354c-4.165,35.478-5.332,39.976-16.994,39.976
			c-11.324,0-11.324-4.498-7.161-39.976c0.324-2.886,0.629-5.552,0.918-8.047l-22.45,5.707c-0.097,0.775-0.191,1.54-0.289,2.34
			c-5.995,48.307,0.166,58.132,26.487,58.132c30.316,0,35.313-9.825,41.311-58.132c0.905-7.555,1.523-14.17,1.823-19.96
			L352.226,53.989z"/>
	</g>
	<g>
		<polygon fill="#FFFFFF" points="399.62,41.947 389.784,124.811 411.439,124.811 421.95,36.272 		"/>
		<polygon fill="#FFFFFF" points="445.552,11.811 445.592,11.541 383.458,11.541 381.124,28.182 		"/>
	</g>
	<circle fill="#DC3333" cx="482.037" cy="11.541" r="11.539"/>
</g>
</svg>
